PathFileType	4	(X/Y/Z)	 1.9Hzhigh3min.trc
DataRate	CameraRate	NumFrames	NumMarkers	Units	OrigDataRate	OrigDataStartFrame	OrigNumFrames
200	200	11	35	m	200	501	1000
Frame#	Time	C7			LSH			RSH			MAN			RASI			LASI			HIPR			HIPL			RPSI			LPSI			COX			RTHI1			RTHI2			RTHI3			RTHI4			RSHA1			RSHA2			RSHA3			RSHA4			RHEEL			RMET5			RMET1			RTOE			LTHI1			LTHI2			LTHI3			LTHI4			LSHA1			LSHA2			LSHA3			LSHA4			LHEEL			LMET5			LMET1			LTOE			
		X1	Y1	Z1	X2	Y2	Z2	X3	Y3	Z3	X4	Y4	Z4	X5	Y5	Z5	X6	Y6	Z6	X7	Y7	Z7	X8	Y8	Z8	X9	Y9	Z9	X10	Y10	Z10	X11	Y11	Z11	X12	Y12	Z12	X13	Y13	Z13	X14	Y14	Z14	X15	Y15	Z15	X16	Y16	Z16	X17	Y17	Z17	X18	Y18	Z18	X19	Y19	Z19	X20	Y20	Z20	X21	Y21	Z21	X22	Y22	Z22	X23	Y23	Z23	X24	Y24	Z24	X25	Y25	Z25	X26	Y26	Z26	X27	Y27	Z27	X28	Y28	Z28	X29	Y29	Z29	X30	Y30	Z30	X31	Y31	Z31	X32	Y32	Z32	X33	Y33	Z33	X34	Y34	Z34	X35	Y35	Z35	
501	2.5050	-0.321963	1.712261	-0.551449	-0.268791	1.700099	-0.770631	-0.260671	1.694560	-0.347738	-0.177005	1.657233	-0.556125	-0.183328	1.206754	-0.431717	-0.174247	1.198716	-0.642095	-0.233811	1.263691	-0.388882	-0.226682	1.255842	-0.707117	-0.360017	1.245361	-0.490272	-0.360099	1.237018	-0.604847	-0.367183	1.250465	-0.544426	-0.277114	0.952003	-0.346780	-0.262118	0.895733	-0.333009	-0.197795	0.911017	-0.332163	-0.205812	0.970428	-0.346727	-0.363748	0.482705	-0.336926	-0.361226	0.441527	-0.347971	-0.303376	0.447451	-0.329548	-0.308353	0.486540	-0.323354	-0.427091	0.176363	-0.415628	-0.287409	0.059099	-0.343121	-0.235473	0.077310	-0.409832	-0.208951	0.065004	-0.402788	-0.226522	0.938593	-0.754866	-0.210616	0.878948	-0.758825	-0.149397	0.888557	-0.741488	-0.156394	0.948386	-0.735618	-0.289453	0.475408	-0.754958	-0.302941	0.437233	-0.753260	-0.242577	0.423417	-0.741587	-0.236905	0.467171	-0.745212	-0.401726	0.169310	-0.689194	-0.257373	0.053260	-0.746438	-0.209558	0.055524	-0.674665	-0.184617	0.045181	-0.681970	
502	2.5100	-0.321509	1.706792	-0.551285	-0.268349	1.694245	-0.770559	-0.260217	1.688644	-0.347508	-0.176750	1.651453	-0.555995	-0.184141	1.201352	-0.431718	-0.175250	1.193256	-0.642093	-0.234628	1.258286	-0.388901	-0.227712	1.250208	-0.707124	-0.360898	1.239960	-0.490265	-0.361038	1.231552	-0.604789	-0.368183	1.245030	-0.544398	-0.276626	0.946590	-0.346500	-0.261095	0.890313	-0.333064	-0.196974	0.906045	-0.332125	-0.205385	0.965417	-0.346789	-0.362546	0.478188	-0.336802	-0.360293	0.437002	-0.347925	-0.302443	0.442526	-0.329301	-0.307186	0.481649	-0.323083	-0.427904	0.172590	-0.416516	-0.289541	0.054307	-0.343045	-0.237044	0.071910	-0.409648	-0.210689	0.059412	-0.402427	-0.226257	0.933171	-0.754707	-0.210073	0.873603	-0.758802	-0.148918	0.883453	-0.741371	-0.156195	0.943239	-0.735338	-0.287892	0.470326	-0.754891	-0.301557	0.432223	-0.753127	-0.241310	0.418187	-0.741118	-0.235433	0.461888	-0.744853	-0.402123	0.165023	-0.688301	-0.258215	0.048015	-0.744930	-0.210174	0.051049	-0.672982	-0.185286	0.040939	-0.680270	
503	2.5150	-0.321063	1.701069	-0.551107	-0.267883	1.688133	-0.770490	-0.259751	1.682462	-0.347254	-0.176501	1.645396	-0.555858	-0.184951	1.195691	-0.431724	-0.176237	1.187563	-0.642103	-0.235464	1.252620	-0.388897	-0.228767	1.244327	-0.707141	-0.361792	1.234286	-0.490270	-0.361985	1.225807	-0.604739	-0.369191	1.239318	-0.544375	-0.276115	0.940911	-0.346216	-0.260031	0.884679	-0.333082	-0.196125	0.900851	-0.332070	-0.204930	0.960150	-0.346822	-0.361272	0.473479	-0.336653	-0.359315	0.432301	-0.347858	-0.301451	0.437390	-0.329025	-0.305927	0.476524	-0.322759	-0.428815	0.168732	-0.417239	-0.291823	0.049385	-0.343021	-0.238824	0.066293	-0.409735	-0.212664	0.053707	-0.402393	-0.225885	0.927523	-0.754470	-0.209406	0.868040	-0.758720	-0.148296	0.878152	-0.741239	-0.155883	0.937882	-0.735040	-0.286323	0.465061	-0.754841	-0.300205	0.427040	-0.753005	-0.240079	0.412750	-0.740642	-0.233962	0.456392	-0.744499	-0.402967	0.160527	-0.687387	-0.259403	0.042838	-0.743391	-0.210747	0.046940	-0.671252	-0.185864	0.037124	-0.678384	
504	2.5200	-0.320630	1.695097	-0.550916	-0.267394	1.681768	-0.770423	-0.259269	1.676017	-0.346975	-0.176271	1.639060	-0.555713	-0.185766	1.189771	-0.431738	-0.177209	1.181640	-0.642126	-0.236311	1.246685	-0.388867	-0.229843	1.238197	-0.707165	-0.362705	1.228323	-0.490280	-0.362946	1.219778	-0.604696	-0.370211	1.233325	-0.544357	-0.275576	0.934950	-0.345952	-0.258941	0.878807	-0.333026	-0.195244	0.895420	-0.331986	-0.204448	0.954602	-0.346832	-0.359934	0.468587	-0.336481	-0.358309	0.427401	-0.347800	-0.300393	0.432042	-0.328715	-0.304583	0.471193	-0.322402	-0.429918	0.164739	-0.417824	-0.294132	0.044571	-0.342971	-0.240701	0.060802	-0.410229	-0.214710	0.048244	-0.402808	-0.225409	0.921646	-0.754150	-0.208608	0.862264	-0.758570	-0.147532	0.872665	-0.741101	-0.155455	0.932326	-0.734723	-0.284749	0.459627	-0.754838	-0.298893	0.421709	-0.752910	-0.238930	0.407099	-0.740130	-0.232513	0.450669	-0.744137	-0.404419	0.155777	-0.686462	-0.260609	0.038512	-0.742588	-0.211230	0.043452	-0.669623	-0.186322	0.034022	-0.676497	
505	2.5250	-0.320212	1.688881	-0.550709	-0.266887	1.675151	-0.770362	-0.258792	1.669336	-0.346678	-0.176060	1.632445	-0.555558	-0.186589	1.183595	-0.431756	-0.178164	1.175493	-0.642167	-0.237158	1.240462	-0.388797	-0.230935	1.231818	-0.707206	-0.363638	1.222065	-0.490291	-0.363927	1.213469	-0.604654	-0.371246	1.227046	-0.544334	-0.274991	0.928686	-0.345710	-0.257829	0.872680	-0.332908	-0.194339	0.889732	-0.331866	-0.203961	0.948806	-0.346847	-0.358545	0.463519	-0.336242	-0.357268	0.422322	-0.347629	-0.299293	0.426490	-0.328362	-0.303166	0.465667	-0.322004	-0.431341	0.160525	-0.418283	-0.296278	0.040132	-0.342861	-0.242504	0.055769	-0.411092	-0.216595	0.043342	-0.403775	-0.224835	0.915547	-0.753746	-0.207683	0.856279	-0.758355	-0.146633	0.867002	-0.740961	-0.154919	0.926593	-0.734403	-0.283185	0.454029	-0.754897	-0.297659	0.416239	-0.752856	-0.237919	0.401220	-0.739576	-0.231110	0.444703	-0.743767	-0.406593	0.150816	-0.685500	-0.261366	0.035296	-0.742373	-0.211621	0.040869	-0.668233	-0.186618	0.031862	-0.674713	
506	2.5300	-0.319819	1.682433	-0.550481	-0.266356	1.668289	-0.770313	-0.258316	1.662425	-0.346357	-0.175872	1.625551	-0.555388	-0.187424	1.177169	-0.431773	-0.179100	1.169131	-0.642229	-0.238000	1.233956	-0.388675	-0.232039	1.225187	-0.707262	-0.364592	1.215522	-0.490297	-0.364930	1.206888	-0.604614	-0.372299	1.220475	-0.544306	-0.274360	0.922137	-0.345501	-0.256701	0.866311	-0.332675	-0.193417	0.883820	-0.331690	-0.203481	0.942778	-0.346866	-0.357124	0.458322	-0.335909	-0.356224	0.417118	-0.347315	-0.298169	0.420757	-0.327945	-0.301682	0.459964	-0.321559	-0.433222	0.156047	-0.418598	-0.298163	0.036315	-0.342612	-0.244084	0.051450	-0.412237	-0.218192	0.039285	-0.405299	-0.224171	0.909228	-0.753277	-0.206631	0.850090	-0.758082	-0.145609	0.861179	-0.740826	-0.154279	0.920697	-0.734091	-0.281656	0.448286	-0.754997	-0.296558	0.410667	-0.752822	-0.237099	0.395105	-0.738997	-0.229789	0.438479	-0.743404	-0.409531	0.145700	-0.684513	-0.262126	0.032898	-0.742706	-0.211981	0.039196	-0.667362	-0.186784	0.030457	-0.673289	
507	2.5350	-0.319453	1.675768	-0.550223	-0.265803	1.661188	-0.770285	-0.257833	1.655295	-0.346000	-0.175716	1.618387	-0.555202	-0.188272	1.170501	-0.431784	-0.180012	1.162553	-0.642319	-0.238840	1.227138	-0.388510	-0.233151	1.218315	-0.707337	-0.365572	1.208697	-0.490297	-0.365954	1.200041	-0.604575	-0.373365	1.213621	-0.544278	-0.273689	0.915290	-0.345348	-0.255568	0.859702	-0.332319	-0.192490	0.877688	-0.331422	-0.203020	0.936499	-0.346851	-0.355667	0.453014	-0.335358	-0.355214	0.411812	-0.346782	-0.297038	0.414879	-0.327463	-0.300142	0.454096	-0.321097	-0.435706	0.151358	-0.418790	-0.299679	0.033316	-0.342142	-0.245370	0.048141	-0.413612	-0.219435	0.036411	-0.407254	-0.223421	0.902699	-0.752771	-0.205458	0.843710	-0.757781	-0.144460	0.855212	-0.740711	-0.153547	0.914647	-0.733804	-0.280200	0.442439	-0.755109	-0.295644	0.405052	-0.752811	-0.236538	0.388773	-0.738390	-0.228594	0.432008	-0.743016	-0.413095	0.140549	-0.683597	-0.263240	0.031332	-0.743570	-0.212469	0.038186	-0.667082	-0.187087	0.029622	-0.672509	
508	2.5400	-0.319119	1.668912	-0.549933	-0.265229	1.653855	-0.770290	-0.257346	1.647963	-0.345604	-0.175577	1.610972	-0.554996	-0.189139	1.163613	-0.431790	-0.180896	1.155764	-0.642438	-0.239682	1.220023	-0.388314	-0.234268	1.211202	-0.707434	-0.366576	1.201593	-0.490297	-0.367002	1.192937	-0.604537	-0.374453	1.206493	-0.544244	-0.272978	0.908187	-0.345206	-0.254442	0.852841	-0.331878	-0.191568	0.871332	-0.331020	-0.202569	0.929978	-0.346783	-0.354187	0.447636	-0.334558	-0.354209	0.406435	-0.345983	-0.295896	0.408893	-0.326993	-0.298546	0.448107	-0.320642	-0.438793	0.146500	-0.418865	-0.300705	0.031232	-0.341488	-0.246362	0.045950	-0.415001	-0.220235	0.034545	-0.409383	-0.222588	0.895983	-0.752264	-0.204168	0.837157	-0.757483	-0.143196	0.849120	-0.740635	-0.152734	0.908462	-0.733552	-0.278846	0.436548	-0.755183	-0.294936	0.399451	-0.752780	-0.236267	0.382262	-0.737761	-0.227556	0.425329	-0.742587	-0.417006	0.135564	-0.682804	-0.264467	0.030545	-0.744901	-0.213277	0.037704	-0.667151	-0.187714	0.029218	-0.672245	
509	2.5450	-0.318826	1.661890	-0.549602	-0.264640	1.646305	-0.770340	-0.256868	1.640436	-0.345179	-0.175450	1.603341	-0.554771	-0.190027	1.156524	-0.431787	-0.181748	1.148773	-0.642588	-0.240545	1.212622	-0.388077	-0.235390	1.203854	-0.707550	-0.367604	1.194234	-0.490287	-0.368075	1.185592	-0.604494	-0.375550	1.199098	-0.544211	-0.272248	0.900839	-0.345059	-0.253317	0.845771	-0.331302	-0.190654	0.864792	-0.330447	-0.202149	0.923232	-0.346604	-0.352654	0.442238	-0.333492	-0.353181	0.401049	-0.344926	-0.294730	0.402855	-0.326593	-0.296872	0.442039	-0.320221	-0.442319	0.141597	-0.418801	-0.301390	0.029869	-0.340744	-0.247140	0.044546	-0.416099	-0.220785	0.033339	-0.411405	-0.221679	0.889094	-0.751798	-0.202762	0.830444	-0.757226	-0.141831	0.842917	-0.740604	-0.151856	0.902156	-0.733345	-0.277602	0.430686	-0.755157	-0.294438	0.393939	-0.752692	-0.236249	0.375649	-0.737207	-0.226661	0.418520	-0.742178	-0.420978	0.130818	-0.682145	-0.265939	0.029867	-0.745926	-0.214343	0.037575	-0.667368	-0.188552	0.029023	-0.672214	
510	2.5500	-0.318575	1.654731	-0.549234	-0.264045	1.638567	-0.770446	-0.256378	1.632675	-0.344713	-0.175323	1.595539	-0.554527	-0.190935	1.149254	-0.431765	-0.182570	1.141595	-0.642771	-0.241442	1.204970	-0.387801	-0.236515	1.196281	-0.707679	-0.368658	1.186641	-0.490274	-0.369174	1.178015	-0.604454	-0.376654	1.191455	-0.544178	-0.271511	0.893303	-0.344867	-0.252194	0.838501	-0.330658	-0.189748	0.858095	-0.329678	-0.201737	0.916307	-0.346214	-0.351018	0.436872	-0.332195	-0.352113	0.395731	-0.343701	-0.293482	0.396808	-0.326354	-0.295064	0.435930	-0.319865	-0.446048	0.136860	-0.418647	-0.301978	0.028994	-0.339917	-0.247839	0.043664	-0.416936	-0.221339	0.032554	-0.413064	-0.220702	0.882058	-0.751426	-0.201251	0.823600	-0.757044	-0.140385	0.836619	-0.740617	-0.150928	0.895747	-0.733191	-0.276455	0.424936	-0.755024	-0.294093	0.388585	-0.752562	-0.236396	0.369049	-0.736798	-0.225869	0.411702	-0.741824	-0.424794	0.126216	-0.681663	-0.267797	0.028981	-0.746825	-0.215495	0.037540	-0.667602	-0.189483	0.028854	-0.672335	
511	2.5550	-0.318360	1.647468	-0.548840	-0.263455	1.630665	-0.770611	-0.255877	1.624680	-0.344207	-0.175182	1.587621	-0.554266	-0.191867	1.141830	-0.431714	-0.183365	1.134241	-0.642979	-0.242414	1.197098	-0.387468	-0.237651	1.188494	-0.707816	-0.369742	1.178828	-0.490254	-0.370303	1.170230	-0.604412	-0.377760	1.183599	-0.544143	-0.270769	0.885617	-0.344597	-0.251060	0.831072	-0.329970	-0.188842	0.851255	-0.328719	-0.201298	0.909233	-0.345538	-0.349204	0.431576	-0.330706	-0.350937	0.390509	-0.342412	-0.292097	0.390791	-0.326330	-0.293074	0.429838	-0.319592	-0.449730	0.132356	-0.418483	-0.302506	0.028418	-0.339065	-0.248572	0.043183	-0.417567	-0.221936	0.032041	-0.414199	-0.219671	0.874911	-0.751179	-0.199660	0.816653	-0.756965	-0.138880	0.830246	-0.740674	-0.149979	0.889256	-0.733099	-0.275348	0.419345	-0.754855	-0.293778	0.383399	-0.752459	-0.236573	0.362580	-0.736537	-0.225110	0.405011	-0.741541	-0.428270	0.121661	-0.681357	-0.269406	0.028239	-0.747724	-0.216558	0.037497	-0.667703	-0.190355	0.028719	-0.672464	
